<?xml version="1.0" standalone="no"?>
<!DOCTYPE svg PUBLIC "-//W3C//DTD SVG 20010904//EN"
 "http://www.w3.org/TR/2001/REC-SVG-20010904/DTD/svg10.dtd">
<svg version="1.0" xmlns="http://www.w3.org/2000/svg"
 width="512.000000pt" height="512.000000pt" viewBox="0 0 512.000000 512.000000"
 preserveAspectRatio="xMidYMid meet">
<metadata>
Created by potrace 1.14, written by Peter Selinger 2001-2017
</metadata>
<g transform="translate(0.000000,512.000000) scale(0.100000,-0.100000)"
fill="#000000" stroke="none">
<path d="M0 2560 l0 -2560 2560 0 2560 0 0 2560 0 2560 -2560 0 -2560 0 0
-2560z m1807 1369 c264 -35 466 -158 602 -365 28 -42 52 -82 55 -88 2 -6 12 0
22 14 158 215 346 339 629 416 114 31 347 43 475 25 173 -25 359 -98 487 -192
154 -114 297 -316 354 -499 11 -36 22 -73 25 -82 5 -17 -8 -18 -188 -18 l-193
0 -23 59 c-74 191 -248 344 -452 398 -86 22 -271 22 -358 -1 -165 -42 -263
-98 -363 -203 -174 -185 -239 -405 -239 -810 0 -314 34 -487 131 -683 63 -128
186 -254 308 -315 116 -58 204 -78 356 -79 126 -1 149 2 235 27 126 38 190 76
280 166 58 58 86 97 118 161 46 93 87 237 97 342 l7 68 -334 2 -333 3 0 150 0
150 509 3 509 2 -6 -167 c-15 -432 -120 -727 -336 -944 -206 -207 -469 -300
-806 -286 -205 9 -322 37 -490 117 -114 54 -192 110 -285 204 -35 36 -67 65
-71 64 -3 -2 -29 -30 -57 -64 -103 -124 -278 -230 -463 -279 -124 -32 -235
-45 -394 -45 -245 0 -398 30 -560 111 -175 87 -288 199 -369 366 -42 84 -86
214 -86 249 l0 24 176 0 175 0 16 -37 c55 -135 138 -245 226 -300 106 -67 288
-100 493 -89 213 11 357 62 463 165 95 93 135 211 112 334 -41 214 -184 307
-648 422 -267 66 -396 103 -493 142 -287 115 -411 270 -441 551 -9 84 -9 131
0 203 31 249 223 457 510 556 55 18 139 40 188 47 108 17 324 20 430 5z"/>
<path d="M1499 3610 c-196 -19 -354 -105 -424 -231 -28 -51 -30 -61 -30 -164
0 -99 3 -115 27 -160 69 -130 227 -210 583 -295 152 -36 226 -55 315 -82 80
-25 242 -88 254 -99 6 -5 13 -9 16 -9 4 0 10 60 13 133 7 146 36 335 67 435
30 95 32 92 -59 92 -87 0 -91 3 -111 65 -28 87 -121 200 -205 250 -62 37 -130
56 -229 66 -101 9 -108 9 -217 -1z"/>
</g>
</svg>
